<svg width="50" height="50" viewBox="0 0 50 50" fill="none" xmlns="http://www.w3.org/2000/svg">
<path d="M48.2142 17.8572C48.2142 16.91 47.8378 16.0016 47.1681 15.3318C46.4985 14.662 45.5899 14.2857 44.6428 14.2857H37.4999L32.1428 7.14288H17.8571L12.4999 14.2857H5.35707C4.40986 14.2857 3.50147 14.662 2.83169 15.3318C2.16192 16.0016 1.78564 16.91 1.78564 17.8572V39.2857C1.78564 40.2329 2.16192 41.1415 2.83169 41.8111C3.50147 42.4807 4.40986 42.8572 5.35707 42.8572H44.6428C45.5899 42.8572 46.4985 42.4807 47.1681 41.8111C47.8378 41.1415 48.2142 40.2329 48.2142 39.2857V17.8572Z" stroke="currentColor" stroke-width="2" stroke-linecap="round" stroke-linejoin="round"/>
<path d="M25.0001 34.8214C29.4381 34.8214 33.0358 31.2237 33.0358 26.7857C33.0358 22.3477 29.4381 18.75 25.0001 18.75C20.5621 18.75 16.9644 22.3477 16.9644 26.7857C16.9644 31.2237 20.5621 34.8214 25.0001 34.8214Z" stroke="currentColor" stroke-width="2" stroke-linecap="round" stroke-linejoin="round"/>
</svg>
