<svg width="30" height="30" viewBox="0 0 30 30" fill="none" xmlns="http://www.w3.org/2000/svg">
<g clip-path="url(#clip0_170_199)">
<path d="M1.07141 26.7857V3.21427C1.07141 2.64594 1.29718 2.1009 1.69904 1.69904C2.1009 1.29718 2.64594 1.07141 3.21427 1.07141H26.7857C27.354 1.07141 27.8991 1.29718 28.3009 1.69904C28.7027 2.1009 28.9286 2.64594 28.9286 3.21427V26.7857C28.9286 27.354 28.7027 27.8991 28.3009 28.3009C27.8991 28.7027 27.354 28.9286 26.7857 28.9286H20.3571V18.7714H21.8786C22.2253 18.7714 22.5576 18.6337 22.8028 18.3886C23.0479 18.1434 23.1857 17.8109 23.1857 17.4643V15.8143C23.1857 15.6426 23.1518 15.4726 23.0863 15.314C23.0205 15.1554 22.9243 15.0114 22.8028 14.89C22.6815 14.7686 22.5373 14.6723 22.3787 14.6066C22.2201 14.5409 22.0502 14.5071 21.8786 14.5071H20.4428V12.4928C20.4428 10.6928 21.2571 10.6928 22.0714 10.6928H23.1214C23.2939 10.7 23.4658 10.6691 23.625 10.6024C23.7842 10.5358 23.9269 10.435 24.0428 10.3071C24.1673 10.1886 24.2659 10.0455 24.3323 9.88687C24.3988 9.72825 24.4316 9.55762 24.4286 9.3857V7.79998C24.4343 7.62549 24.4056 7.45158 24.3439 7.2882C24.2824 7.12481 24.1894 6.97515 24.0698 6.84778C23.9505 6.72043 23.8071 6.61783 23.6481 6.5459C23.4891 6.47396 23.3173 6.43408 23.1428 6.42855H20.6786C19.9595 6.40151 19.2432 6.5309 18.579 6.80775C17.9148 7.08459 17.3187 7.50232 16.8318 8.03205C16.3448 8.56181 15.9786 9.19093 15.7586 9.876C15.5385 10.5611 15.4698 11.2857 15.5571 12V14.5071H14.1857C14.0123 14.5043 13.84 14.536 13.6789 14.6004C13.5178 14.6648 13.3712 14.7606 13.2475 14.8823C13.1239 15.004 13.0257 15.149 12.9586 15.309C12.8916 15.4691 12.8571 15.6408 12.8571 15.8143V17.4643C12.8571 17.6377 12.8916 17.8095 12.9586 17.9695C13.0257 18.1295 13.1239 18.2745 13.2475 18.3962C13.3712 18.5179 13.5178 18.6137 13.6789 18.6781C13.84 18.7425 14.0123 18.7743 14.1857 18.7714H15.5571V28.9286H3.21427C2.64594 28.9286 2.1009 28.7027 1.69904 28.3009C1.29718 27.8991 1.07141 27.354 1.07141 26.7857Z" stroke="#3B5998" stroke-width="2" stroke-linecap="round" stroke-linejoin="round"/>
</g>
<defs>
<clipPath id="clip0_170_199">
<rect width="30" height="30" fill="white"/>
</clipPath>
</defs>
</svg>
