<svg width="30" height="30" viewBox="0 0 30 30" fill="none" xmlns="http://www.w3.org/2000/svg">
<path d="M24.3429 12.4926H16.8643C16.719 12.4926 16.5751 12.5215 16.4411 12.5778C16.3071 12.634 16.1856 12.7165 16.0839 12.8202C15.9821 12.924 15.9021 13.047 15.8484 13.1821C15.7948 13.3172 15.7686 13.4616 15.7715 13.6069V16.6283C15.7715 16.9182 15.8866 17.1961 16.0916 17.4011C16.2965 17.606 16.5745 17.7212 16.8643 17.7212H21.7714C21.7869 18.5494 21.6276 19.3716 21.3039 20.1342C20.9802 20.8967 20.4994 21.5824 19.8927 22.1466C19.2861 22.7106 18.5674 23.1407 17.7834 23.4083C16.9994 23.676 16.1679 23.7752 15.3429 23.6998C10.5429 23.6998 8.22862 19.6283 8.22862 14.9998C8.22862 10.3712 10.7143 6.29975 15.3429 6.29975C17.3863 6.23193 19.3886 6.88419 21 8.14261C21.1288 8.22689 21.2746 8.28183 21.427 8.30354C21.5794 8.32524 21.7346 8.31318 21.8818 8.2682C22.029 8.22322 22.1646 8.14642 22.2789 8.04326C22.3931 7.94009 22.4833 7.81306 22.5429 7.67118L23.8929 4.58546C24.0039 4.35802 24.0326 4.0991 23.9739 3.85289C23.9154 3.60667 23.7731 3.38844 23.5714 3.23546C21.1142 1.76609 18.2909 1.02311 15.4286 1.0926C7.62862 1.07117 2.31433 7.13546 2.31433 14.9998C2.31433 22.864 7.65005 28.9283 15.3429 28.9283C23.0357 28.9283 27.6857 23.4426 27.6857 16.0712C27.6857 13.714 26.7429 12.4926 24.3429 12.4926Z" stroke="#E54335" stroke-width="2" stroke-linecap="round" stroke-linejoin="round"/>
</svg>
