<svg width="30" height="30" viewBox="0 0 30 30" fill="none" xmlns="http://www.w3.org/2000/svg">
<path d="M7.65781 3.78637C7.66357 4.52733 7.37758 5.24079 6.86163 5.77263C6.34569 6.30444 5.64121 6.61192 4.90042 6.62861C4.16118 6.60148 3.46061 6.29141 2.94348 5.76243C2.42636 5.23346 2.13221 4.52606 2.12183 3.78637C2.15396 3.06573 2.45891 2.38423 2.97489 1.88009C3.49085 1.37594 4.17922 1.08685 4.90042 1.07141C5.61954 1.08713 6.30547 1.37694 6.818 1.88159C7.33053 2.38625 7.63096 3.06761 7.65781 3.78637ZM2.41878 11.6768C2.41878 10.0435 3.45811 10.2981 4.90042 10.2981C6.34276 10.2981 7.36087 10.0435 7.36087 11.6768V27.5848C7.36087 29.2393 6.32154 28.8998 4.90042 28.8998C3.47932 28.8998 2.41878 29.2393 2.41878 27.5848V11.6768Z" stroke="#007EBB" stroke-width="2" stroke-linecap="round" stroke-linejoin="round"/>
<path d="M11.6454 11.677C11.6454 10.765 11.9847 10.4256 12.515 10.3196C13.0453 10.2135 14.8694 10.3196 15.5057 10.3196C16.142 10.3196 16.3966 11.3589 16.3754 12.1437C16.9197 11.4132 17.6423 10.8346 18.4742 10.4632C19.3061 10.0918 20.2193 9.94011 21.1266 10.0226C22.0174 9.96814 22.9099 10.1017 23.7459 10.4146C24.5816 10.7276 25.3425 11.2129 25.9785 11.839C26.6147 12.4651 27.1119 13.218 27.438 14.0489C27.7642 14.8797 27.9118 15.7699 27.8715 16.6615V27.5214C27.8715 29.1759 26.8534 28.8365 25.4111 28.8365C23.9687 28.8365 22.9507 29.1759 22.9507 27.5214V19.0372C22.9879 18.6005 22.9309 18.1609 22.7833 17.7483C22.6357 17.3357 22.4008 16.9596 22.095 16.6458C21.7892 16.3319 21.4194 16.0875 21.0107 15.9292C20.6021 15.7709 20.1641 15.7023 19.7267 15.7283C19.2912 15.7172 18.8584 15.7988 18.4568 15.9676C18.0552 16.1364 17.6941 16.3885 17.3973 16.7074C17.1006 17.0262 16.8749 17.4045 16.7353 17.8171C16.5957 18.2297 16.5453 18.6672 16.5875 19.1008V27.585C16.5875 29.2395 15.5481 28.9001 14.1058 28.9001C12.6635 28.9001 11.6454 29.2395 11.6454 27.585V11.677Z" stroke="#007EBB" stroke-width="2" stroke-linecap="round" stroke-linejoin="round"/>
</svg>
