<svg width="32" height="32" viewBox="0 0 32 32" fill="none" xmlns="http://www.w3.org/2000/svg">
<path d="M16 31C24.75 31 31 28.1428 31 21.7834C31 14.871 27.25 10.2627 19.75 6.80645L22.7 3.30414C22.8499 3.07436 22.9312 2.81214 22.9356 2.54405C22.9401 2.27597 22.8676 2.01157 22.7254 1.77764C22.5833 1.54372 22.3766 1.34858 22.1263 1.21201C21.876 1.07545 21.5909 1.0023 21.3 1H10.7C10.4091 1.0023 10.124 1.07545 9.87372 1.21201C9.62337 1.34858 9.41668 1.54372 9.27455 1.77764C9.1324 2.01157 9.0599 2.27597 9.06437 2.54405C9.06885 2.81214 9.15013 3.07436 9.3 3.30414L12.25 6.82948C4.75 10.3087 1 14.917 1 21.8295C1 28.1428 7.25 31 16 31Z" stroke="currentColor" stroke-width="2" stroke-linecap="round" stroke-linejoin="round"/>
<path d="M19.457 15.5517C19.3381 15.2411 19.1547 14.9588 18.9215 14.7183C18.4256 14.2069 17.7049 13.885 16.9028 13.885H14.8065C13.4713 13.885 12.3889 14.8841 12.3889 16.1166C12.3889 17.1653 13.18 18.0725 14.2898 18.2966L17.4816 18.9411C18.7249 19.1922 19.6112 20.2093 19.6112 21.3841C19.6112 22.7648 18.3986 23.8852 16.9028 23.8852H15.0972C13.918 23.8852 12.9148 23.1894 12.543 22.2184" stroke="currentColor" stroke-width="2" stroke-linecap="round" stroke-linejoin="round"/>
<path d="M16 13.8847V11.3846" stroke="currentColor" stroke-width="2" stroke-linecap="round" stroke-linejoin="round"/>
<path d="M16 26.3848V23.8846" stroke="currentColor" stroke-width="2" stroke-linecap="round" stroke-linejoin="round"/>
</svg>
