<svg width="20" height="20" viewBox="0 0 20 20" fill="none" xmlns="http://www.w3.org/2000/svg">
<g clip-path="url(#clip0_340_12)">
<path d="M7.14293 17.4857L0.714355 19.2857L2.51436 12.8571L14.2858 1.14283C14.4188 1.00677 14.5778 0.898656 14.7531 0.824846C14.9285 0.751034 15.1169 0.713013 15.3072 0.713013C15.4975 0.713013 15.6859 0.751034 15.8614 0.824846C16.0366 0.898656 16.1956 1.00677 16.3286 1.14283L18.8572 3.68569C18.9911 3.81849 19.0974 3.9765 19.1699 4.15058C19.2425 4.32466 19.2798 4.51139 19.2798 4.69998C19.2798 4.88856 19.2425 5.07529 19.1699 5.24938C19.0974 5.42346 18.9911 5.58146 18.8572 5.71426L7.14293 17.4857Z" stroke="currentColor" stroke-width="2" stroke-linecap="round" stroke-linejoin="round"/>
</g>
<defs>
<clipPath id="clip0_340_12">
<rect width="20" height="20" fill="white"/>
</clipPath>
</defs>
</svg>
