<svg width="67" height="67" viewBox="0 0 67 67" fill="none" xmlns="http://www.w3.org/2000/svg">
<path d="M41.9703 58C41.9703 60.5 41.1203 62.6 39.4203 64.3C37.8203 65.9 35.7703 66.7 33.2703 66.7C30.9703 66.7 28.9703 65.9 27.2703 64.3C25.5703 62.6 24.7203 60.5 24.7203 58V42.4H8.97031C6.47031 42.4 4.37031 41.55 2.67031 39.85C1.07031 38.15 0.270313 36.15 0.270313 33.85C0.270313 31.35 1.07031 29.3 2.67031 27.7C4.37031 26.1 6.47031 25.3 8.97031 25.3H24.7203V9.4C24.7203 6.9 25.5703 4.85 27.2703 3.25C28.9703 1.65 30.9703 0.849996 33.2703 0.849996C35.7703 0.849996 37.8203 1.65 39.4203 3.25C41.1203 4.85 41.9703 6.9 41.9703 9.4V25.3H57.7203C60.0203 25.3 62.0203 26.1 63.7203 27.7C65.4203 29.3 66.2703 31.35 66.2703 33.85C66.2703 36.15 65.4203 38.15 63.7203 39.85C62.0203 41.55 60.0203 42.4 57.7203 42.4H41.9703V58Z" fill="currentColor"/>
</svg>
