<svg width="30" height="30" viewBox="0 0 30 30" fill="none" xmlns="http://www.w3.org/2000/svg">
<g clip-path="url(#clip0_137_99)">
<path d="M1.07143 3.21427V26.7857C1.07143 27.9692 2.03082 28.9286 3.21429 28.9286H26.7857C27.9692 28.9286 28.9286 27.9692 28.9286 26.7857V3.21427C28.9286 2.0308 27.9692 1.07141 26.7857 1.07141H3.21429C2.03082 1.07141 1.07143 2.0308 1.07143 3.21427Z" stroke="currentColor" stroke-width="2" stroke-linecap="round" stroke-linejoin="round"/>
<path d="M9.64286 23.5715V12.8572" stroke="currentColor" stroke-width="2" stroke-linecap="round" stroke-linejoin="round"/>
<path d="M9.64286 12.8572C11.4181 12.8572 12.8571 11.4181 12.8571 9.64287C12.8571 7.86767 11.4181 6.42859 9.64286 6.42859C7.86765 6.42859 6.42857 7.86767 6.42857 9.64287C6.42857 11.4181 7.86765 12.8572 9.64286 12.8572Z" stroke="currentColor" stroke-width="2" stroke-linecap="round" stroke-linejoin="round"/>
<path d="M20.3571 6.42859V12.8572" stroke="currentColor" stroke-width="2" stroke-linecap="round" stroke-linejoin="round"/>
<path d="M20.3571 19.2856V23.5714" stroke="currentColor" stroke-width="2" stroke-linecap="round" stroke-linejoin="round"/>
<path d="M20.3571 19.2857C22.1323 19.2857 23.5714 17.8467 23.5714 16.0715C23.5714 14.2963 22.1323 12.8572 20.3571 12.8572C18.5819 12.8572 17.1429 14.2963 17.1429 16.0715C17.1429 17.8467 18.5819 19.2857 20.3571 19.2857Z" stroke="currentColor" stroke-width="2" stroke-linecap="round" stroke-linejoin="round"/>
</g>
<defs>
<clipPath id="clip0_137_99">
<rect width="30" height="30" fill="white"/>
</clipPath>
</defs>
</svg>
