<svg id="twitter_icon" data-name="twitter icon" xmlns="http://www.w3.org/2000/svg" width="24" height="20" viewBox="0 0 24 20">
  <path id="Path_279" data-name="Path 279" d="M15.972-464.6a5.042,5.042,0,0,0-4.029,3.453,5.232,5.232,0,0,0-.178,1.619c.019.277.014.444-.014.444a15.368,15.368,0,0,1-1.813-.411,12.286,12.286,0,0,1-6.015-4.137,9.925,9.925,0,0,0-.667-.755,14.5,14.5,0,0,0-.892,1.8,4.62,4.62,0,0,0-.263,1.853,4.425,4.425,0,0,0,.376,2.083l.155.373-.239-.1c-.178-.072-.244-.081-.272-.038a5.579,5.579,0,0,0-.066.755,4.544,4.544,0,0,0,.047,1.175,5.411,5.411,0,0,0,1.263,2.689c.183.2.188.205.066.177-.1-.024-.131-.014-.131.038a13.048,13.048,0,0,0,.662,1.858,5.262,5.262,0,0,0,2.094,2.269c.258.148.263.153.155.2-.066.029-.329.134-.587.239-.681.272-1.634.611-3.273,1.17a15.314,15.314,0,0,0-1.451.53,18.256,18.256,0,0,0,2.348,1.3,12.741,12.741,0,0,0,4.912,1.309,26.571,26.571,0,0,0,3.264,0,12.921,12.921,0,0,0,6.222-2.078,9.726,9.726,0,0,0,3.409-3.965,13.122,13.122,0,0,0,1.169-5.913,3.679,3.679,0,0,1,.23-1.839c.052-.1.62-.917,1.268-1.815s1.179-1.648,1.179-1.667a4.408,4.408,0,0,0-.779,0c-.432.019-.789.029-.8.019s.174-.583.409-1.271.418-1.261.4-1.275a9.021,9.021,0,0,0-1.028.339c-.981.358-2.357.836-2.423.836a2.627,2.627,0,0,1-.385-.272,6.25,6.25,0,0,0-1.86-.9,4.242,4.242,0,0,0-1.287-.143A6.222,6.222,0,0,0,15.972-464.6Zm2.306,1.6a4.24,4.24,0,0,1,1.357.764,2.183,2.183,0,0,0,.47.32,1.9,1.9,0,0,0,1.263-.067c.235-.076.432-.139.432-.134s-.127.368-.282.812-.282.836-.282.869.1.067.347.076l.347.014-.329.454a4,4,0,0,0-.742,1.538,6.485,6.485,0,0,0-.094,1.615,14.064,14.064,0,0,1-.263,3.076c-.934,4.5-4.452,7.208-9.786,7.523a17.819,17.819,0,0,1-4.339-.31,9.527,9.527,0,0,1-1.733-.592,3.41,3.41,0,0,1,.413-.167c.714-.253,1.9-.74,2.7-1.113,1.315-.6,3.47-1.648,3.47-1.681a7.91,7.91,0,0,0-1-.091,17.243,17.243,0,0,1-2.414-.225,4.172,4.172,0,0,1-1.235-.525c-.465-.315-1.075-.965-1.01-1.075a.321.321,0,0,1,.2-.043,3.624,3.624,0,0,0,.526-.091c.657-.162,2.817-.783,2.794-.807s-.681-.191-1.489-.4-1.606-.43-1.77-.5a4.179,4.179,0,0,1-1.69-1.419,5.924,5.924,0,0,1-.5-1.032c-.033-.105-.023-.11.075-.081.291.081,3.1.387,3.282.353.052-.01-.235-.263-.859-.755-1.686-1.323-2.2-1.954-2.5-3.081a6.16,6.16,0,0,1-.052-1.763l.038-.186.385.382a13.462,13.462,0,0,0,4.189,2.8,13.814,13.814,0,0,0,3.451.946c.333.043,1.845.181,1.86.167a12,12,0,0,0-.2-1.486,4.113,4.113,0,0,1,.023-1.81,3,3,0,0,1,.493-.97,4.01,4.01,0,0,1,2.334-1.428,4.409,4.409,0,0,1,.963-.048A2.693,2.693,0,0,1,18.278-463.008Z" transform="translate(-0.899 464.659)" fill="currentColor"/>
</svg>
