<svg width="91" height="95" viewBox="0 0 91 95" fill="none" xmlns="http://www.w3.org/2000/svg">
<path d="M89.2859 93.6008C86.2867 84.2494 80.3959 76.0922 72.4631 70.3051C64.5292 64.5179 54.9629 61.3995 45.1429 61.3995C35.3228 61.3995 25.7564 64.5179 17.8229 70.3051C9.88952 76.0922 3.99873 84.2494 1 93.6008H89.2859Z" stroke="currentColor" stroke-width="2" stroke-linecap="round" stroke-linejoin="round"/>
<path d="M45.1423 61.4579C61.8373 61.4579 75.3716 47.9239 75.3716 31.2289C75.3716 14.5339 61.8373 1 45.1423 1C28.4473 1 14.9133 14.5339 14.9133 31.2289C14.9133 47.9239 28.4473 61.4579 45.1423 61.4579Z" stroke="currentColor" stroke-width="2" stroke-linecap="round" stroke-linejoin="round"/>
<path d="M55.0134 42.925C55.0134 42.925 52.5052 47.8603 45.1427 47.8603C37.7802 47.8603 35.272 42.925 35.272 42.925" stroke="currentColor" stroke-width="2" stroke-linecap="round" stroke-linejoin="round"/>
<path d="M74.8238 25.4736C74.7559 25.474 74.6888 25.4742 74.6216 25.4742C65.8347 25.4742 57.9459 21.63 52.545 15.5317C47.1441 21.6302 39.2553 25.4744 30.4685 25.4744C25.3661 25.4744 20.5664 24.1781 16.3809 21.8968C20.3133 9.76886 31.7035 1 45.1419 1C59.8688 1 72.1359 11.5312 74.8238 25.4736Z" fill="none" stroke="currentColor" stroke-width="2" stroke-linecap="round" stroke-linejoin="round"/>
</svg>
